# xmcd
# 
# Track frame offsets:
#     150
#     19412
#     41363
#     62939
#     89064
#     105526
#     120533
#     139013
#     155626
#     177710
# 
# Disc length: 2601
# 
# Revision: 0
# Processed by: cddbd v1.5.2PL0 Copyright (c) Steve Scherf et al.
# Submitted via: fre:ac v1.0.27
# 
DISCID=8e0a270a
DTITLE=Lucy Wise and The B'Gollies - When We Wander Far From Home
DYEAR=0
DGENRE=
TTITLE0=Song For Shanti
TTITLE1=Darwin to Ambon
TTITLE2=Google Earth
TTITLE3=Lay of the Land
TTITLE4=Around the Garden
TTITLE5=Bruno's House of Sculptures
TTITLE6=Anymore
TTITLE7=Work Life Balance
TTITLE8=Redcliffe Beach
TTITLE9=Mother's Song
EXTD=
EXTT0=
EXTT1=
EXTT2=
EXTT3=
EXTT4=
EXTT5=
EXTT6=
EXTT7=
EXTT8=
EXTT9=
PLAYORDER=
